<svg xmlns="http://www.w3.org/2000/svg" width="44" height="32" viewBox="0 0 44 32"><defs><style>.a{fill:#fff;}</style></defs><path class="a" d="M-981.316,36.225h-34.653l-1-3.194h-8.345v1.534h7.225l7.447,23.72h3.089a4.108,4.108,0,0,0-.947,2.628,4.114,4.114,0,0,0,4.1,4.118,4.113,4.113,0,0,0,4.1-4.118,4.109,4.109,0,0,0-.947-2.628h6.567a4.108,4.108,0,0,0-.947,2.628,4.114,4.114,0,0,0,4.1,4.118,4.113,4.113,0,0,0,4.1-4.118,4.11,4.11,0,0,0-.946-2.628h3.071V56.751h-24.221l-1.641-5.227h26.475ZM-1004.4,63.5a2.581,2.581,0,0,1-2.573-2.583,2.581,2.581,0,0,1,2.573-2.584,2.581,2.581,0,0,1,2.572,2.584A2.581,2.581,0,0,1-1004.4,63.5Zm12.874,0a2.581,2.581,0,0,1-2.572-2.583,2.581,2.581,0,0,1,2.572-2.584,2.581,2.581,0,0,1,2.573,2.584A2.581,2.581,0,0,1-991.527,63.5Zm7.129-20.39h-7.963l1.179-5.348h7.963Zm-18.294,0-1.179-5.348h11.126l-1.18,5.348Zm8.428,1.534-1.179,5.348h-5.732l-1.179-5.348Zm-11.173-6.882,1.18,5.348h-9.551l-1.679-5.348Zm-7.889,6.882h9.407l1.179,5.348h-8.907Zm19.447,5.348,1.179-5.348h7.963l-1.179,5.348Z" transform="translate(1025.316 -33.031)"/></svg>